<svg width="111" height="104" viewBox="0 0 111 104" fill="none" xmlns="http://www.w3.org/2000/svg">
<path d="M0 8.03509L3.62175 6.73684V103.895H0V8.03509Z" fill="#E8C374"/>
<path d="M5.83505 6.37385L9.4568 5.05263V103.93H5.83505V6.37385Z" fill="#E6C070"/>
<path d="M11.6701 4.43519L15.2918 3.08772V103.93H11.6701V4.43519Z" fill="#E7BF70"/>
<path d="M17.5051 2.49654L21.1269 1.12281V103.93H17.5051V2.49654Z" fill="#E9C270"/>
<path d="M23.3402 1.12281V103.93H27.6662V38.5263L54.3934 66.5263V29.5439L25.7211 0L23.3402 1.12281Z" fill="#E7C271"/>
<path d="M111 8.03509L107.378 6.73684V103.895H111V8.03509Z" fill="#C69E59"/>
<path d="M105.165 6.37385L101.543 5.05263V103.93H105.165V6.37385Z" fill="#C69B55"/>
<path d="M99.3299 4.43519L95.7082 3.08772V103.93H99.3299V4.43519Z" fill="#C49C55"/>
<path d="M93.4949 2.49654L89.8731 1.12281V103.93H93.4949V2.49654Z" fill="#B9914C"/>
<path d="M87.6598 1.12281V103.93H83.3338V38.5263L56.6066 66.5263V29.5439L85.2789 0L87.6598 1.12281Z" fill="#BB9350"/>
<path d="M78.0018 104V51.7544L55.7012 74.5965V104H78.0018Z" fill="#B48A4A"/>
<path d="M55.7012 74.5965L33.9036 51.8596V104H55.7012V74.5965Z" fill="#E4BD6F"/>
</svg>
