<svg width="1655" height="1482" viewBox="0 0 1655 1482" fill="none" xmlns="http://www.w3.org/2000/svg">
<path d="M1655 114.5L1601 96V1480.5H1655V114.5Z" fill="#909090"/>
<path d="M1568 90.8274L1514 72V1481H1568V90.8274Z" fill="#909090"/>
<path d="M1481 63.2015L1427 44V1481H1481V63.2015Z" fill="#909090"/>
<path d="M1394 35.5757L1340 16V1481H1394V35.5757Z" fill="#909090"/>
<path d="M1307 16V1481H1242.5V549L844 948V421L1271.5 0L1307 16Z" fill="#909090"/>
<path d="M830.5 1063L1163 737.5V1482H830.5V1063Z" fill="#909090"/>
<path d="M0 114.5L54 96V1480.5H0V114.5Z" fill="#C9C9C9"/>
<path d="M87 90.8274L141 72V1481H87V90.8274Z" fill="#C9C9C9"/>
<path d="M174 63.2015L228 44V1481H174V63.2015Z" fill="#C9C9C9"/>
<path d="M261 35.5757L315 16V1481H261V35.5757Z" fill="#C9C9C9"/>
<path d="M348 16V1481H412.5V549L811 948V421L383.5 0L348 16Z" fill="#C9C9C9"/>
<path d="M830.5 1482H505.5V739L830.5 1063V1482Z" fill="#C9C9C9"/>
</svg>
